# xmcd CD database file
#
# Track frame offsets:
#	150
#	18047
#	34685
#	51882
#	69507
#	84730
#	101700
#	116677
#	133990
#	150945
#	163550
#	186535
#
# Disc length: 2744 seconds
#
# Revision: 3
# Processed by: cddbd v1.5.2PL0 Copyright (c) Steve Scherf et al.
# Submitted via: CDex 1.70beta2
#
DISCID=9c0ab60c
DTITLE=Mikael Erlandsson - Under The Sun
DYEAR=1996
DGENRE=Melodic Rock
TTITLE0=Open Book
TTITLE1=Can't Turn Back Now
TTITLE2=Today
TTITLE3=Under The Sun
TTITLE4=Touch You Now
TTITLE5=Hot Shoes
TTITLE6=Down To Earth
TTITLE7=Television
TTITLE8=Suppose
TTITLE9=The Loser
TTITLE10=1000 Years
TTITLE11=A Place To Hide In Town
EXTD=YEAR: 1996
EXTT0=
EXTT1=
EXTT2=
EXTT3=
EXTT4=
EXTT5=
EXTT6=
EXTT7=
EXTT8=
EXTT9=
EXTT10=
EXTT11=
PLAYORDER=
